<?xml version="1.0" encoding="utf-8"?>
<svg version="1.1" width="256" height="256" xmlns="http://www.w3.org/2000/svg">
  <path d="M 199.325 50.71 C 200.124 50.712 200.924 50.714 201.747 50.717 C 202.994 50.725 202.994 50.725 204.266 50.734 C 205.529 50.739 205.529 50.739 206.817 50.744 C 208.895 50.751 210.973 50.763 213.051 50.777 C 213.051 51.232 213.051 51.687 213.051 52.156 C 212.287 52.433 212.287 52.433 211.509 52.716 C 201.698 56.508 194.288 62.265 189.711 71.892 C 185.765 80.865 185.456 91.262 188.753 100.487 C 193.039 110.308 199.429 116.902 209.347 121.057 C 210.578 121.539 211.812 122.017 213.051 122.479 C 213.051 122.934 213.051 123.389 213.051 123.858 C 210.223 123.939 207.396 123.987 204.568 124.03 C 203.777 124.053 202.986 124.077 202.171 124.1 C 195.311 124.178 189.693 122.7 183.855 119.032 C 183.324 118.704 182.792 118.378 182.245 118.041 C 174.316 112.624 168.914 104.311 166.889 94.902 C 165.879 81.861 167.943 72.684 175.778 62.107 C 181.505 55.458 190.52 50.666 199.325 50.71 Z" style="fill: rgb(178, 189, 190);"/>
  <path d="M0 0 C7.08395395 4.18877277 13.59789239 10.38352092 16.24609375 18.328125 C16.77976562 18.18375 17.3134375 18.039375 17.86328125 17.890625 C28.05023783 15.3526981 38.12772419 15.14829946 47.44140625 20.6171875 C54.78052086 25.83549332 61.00144628 32.39714693 62.64453125 41.546875 C62.89483512 43.46812635 63.07678881 45.39804868 63.24609375 47.328125 C62.60542969 47.54726562 61.96476563 47.76640625 61.3046875 47.9921875 C51.67555829 51.52238986 46.63258407 55.5544549 42.19140625 64.86328125 C41.15105966 67.31098551 41.15105966 67.31098551 40.84765625 69.984375 C40.24609375 72.328125 40.24609375 72.328125 38.57421875 73.69921875 C37.8884375 74.05113281 37.20265625 74.40304688 36.49609375 74.765625 C30.87413979 77.97960943 27.15184415 81.97562367 25.24609375 88.328125 C24.89993675 90.32594542 24.56514599 92.32579716 24.24609375 94.328125 C12.59817904 94.51347034 0.95061493 94.65562422 -10.69847393 94.74262238 C-16.10769919 94.78437756 -21.51591585 94.84101176 -26.92456055 94.93164062 C-32.14418761 95.01855506 -37.36284461 95.06639664 -42.58313942 95.08714294 C-44.57478932 95.10192715 -46.56638597 95.13079882 -48.55762291 95.17396545 C-51.34776918 95.23204634 -54.1339072 95.24003887 -56.92456055 95.23632812 C-57.74815063 95.26509033 -58.57174072 95.29385254 -59.42028809 95.32348633 C-61.78598472 95.28944013 -63.54217472 95.17623179 -65.75390625 94.328125 C-72.74384493 86.78604505 -73.29901487 77.29458372 -73.0625 67.53125 C-72.5719357 58.37133574 -68.21804988 50.73117087 -61.75390625 44.328125 C-57.41006149 41.14219263 -53.08159679 38.40591067 -47.75390625 37.328125 C-47.78871094 36.57789063 -47.82351562 35.82765625 -47.859375 35.0546875 C-48.15984088 23.69421562 -46.112607 15.43108975 -38.50390625 6.765625 C-27.68397082 -2.82477231 -13.57735287 -6.33163911 0 0 Z " transform="translate(96.75390625,49.671875)" style="fill: rgba(31, 145, 220, 0.855);"/>
  <path d="M0 0 C5.16818759 3.12314132 9.07049266 7.84033475 12 13.0625 C12.73563779 16.25026376 12.690265 19.24199254 12.5625 22.5 C14.0475 22.37625 14.0475 22.37625 15.5625 22.25 C21.20507544 22.29550464 25.48111323 24.5451289 29.5546875 28.37109375 C35.19159094 34.55765374 36.5625 37.87702219 36.5625 46.5 C-3.3675 46.5 -43.2975 46.5 -84.4375 46.5 C-81.69240196 35.51960784 -81.69240196 35.51960784 -75.5 31.125 C-72.76390504 30.29588032 -70.27733385 30.37091664 -67.4375 30.5 C-67.64375 29.84 -67.85 29.18 -68.0625 28.5 C-68.72455809 23.20353531 -67.17757483 18.95168524 -64.8125 14.3125 C-60.79759945 9.55801251 -57.38514077 6.89508006 -51.0859375 6.05078125 C-43.74955712 5.82299214 -38.63310716 6.53481142 -32.4375 10.5 C-32.17582031 9.90445313 -31.91414063 9.30890625 -31.64453125 8.6953125 C-30.36942773 6.37619218 -29.13436616 5.07694651 -27.125 3.375 C-26.26455078 2.62863281 -26.26455078 2.62863281 -25.38671875 1.8671875 C-18.44092136 -3.00461428 -7.71382895 -3.41828499 0 0 Z " transform="translate(211.4375,97.5)" style="fill: rgba(31, 145, 220, 0.855);"/>
  <path d="M0 0 C3 0.125 3 0.125 4 1.125 C4.09813987 2.56240353 4.1279828 4.00456327 4.12939453 5.4453125 C4.13254669 6.36296387 4.13569885 7.28061523 4.13894653 8.22607422 C4.1369223 9.22396973 4.13489807 10.22186523 4.1328125 11.25 C4.13376923 12.26723145 4.13472595 13.28446289 4.13571167 14.33251953 C4.13639361 16.48795636 4.13453835 18.64339522 4.13037109 20.79882812 C4.12502305 24.11072371 4.13031563 27.42248367 4.13671875 30.734375 C4.13605797 32.82291697 4.13477681 34.91145885 4.1328125 37 C4.13483673 37.99789551 4.13686096 38.99579102 4.13894653 40.02392578 C4.13579437 40.94157715 4.13264221 41.85922852 4.12939453 42.8046875 C4.12859894 43.61663574 4.12780334 44.42858398 4.12698364 45.26513672 C4 47.125 4 47.125 3 48.125 C0 48.25 0 48.25 -3 48.125 C-4.57300328 46.55199672 -4.12725504 44.98815955 -4.12939453 42.8046875 C-4.13254669 41.88703613 -4.13569885 40.96938477 -4.13894653 40.02392578 C-4.1369223 39.02603027 -4.13489807 38.02813477 -4.1328125 37 C-4.13376923 35.98276855 -4.13472595 34.96553711 -4.13571167 33.91748047 C-4.13639361 31.76204364 -4.13453835 29.60660478 -4.13037109 27.45117188 C-4.12502305 24.13927629 -4.13031563 20.82751633 -4.13671875 17.515625 C-4.13605797 15.42708303 -4.13477681 13.33854115 -4.1328125 11.25 C-4.13483673 10.25210449 -4.13686096 9.25420898 -4.13894653 8.22607422 C-4.13579437 7.30842285 -4.13264221 6.39077148 -4.12939453 5.4453125 C-4.12859894 4.63336426 -4.12780334 3.82141602 -4.12698364 2.98486328 C-3.9107193 -0.18264786 -3.22624226 0.13442676 0 0 Z " fill="#4DBFD9" transform="translate(228,175.875)"/>
  <path d="M0 0 C3 0.125 3 0.125 4 1.125 C4.09813987 2.56240353 4.1279828 4.00456327 4.12939453 5.4453125 C4.13254669 6.36296387 4.13569885 7.28061523 4.13894653 8.22607422 C4.1369223 9.22396973 4.13489807 10.22186523 4.1328125 11.25 C4.13376923 12.26723145 4.13472595 13.28446289 4.13571167 14.33251953 C4.13639361 16.48795636 4.13453835 18.64339522 4.13037109 20.79882812 C4.12502305 24.11072371 4.13031563 27.42248367 4.13671875 30.734375 C4.13605797 32.82291697 4.13477681 34.91145885 4.1328125 37 C4.13483673 37.99789551 4.13686096 38.99579102 4.13894653 40.02392578 C4.13579437 40.94157715 4.13264221 41.85922852 4.12939453 42.8046875 C4.12859894 43.61663574 4.12780334 44.42858398 4.12698364 45.26513672 C4 47.125 4 47.125 3 48.125 C0 48.25 0 48.25 -3 48.125 C-4.57300328 46.55199672 -4.12725504 44.98815955 -4.12939453 42.8046875 C-4.13254669 41.88703613 -4.13569885 40.96938477 -4.13894653 40.02392578 C-4.1369223 39.02603027 -4.13489807 38.02813477 -4.1328125 37 C-4.13376923 35.98276855 -4.13472595 34.96553711 -4.13571167 33.91748047 C-4.13639361 31.76204364 -4.13453835 29.60660478 -4.13037109 27.45117188 C-4.12502305 24.13927629 -4.13031563 20.82751633 -4.13671875 17.515625 C-4.13605797 15.42708303 -4.13477681 13.33854115 -4.1328125 11.25 C-4.13483673 10.25210449 -4.13686096 9.25420898 -4.13894653 8.22607422 C-4.13579437 7.30842285 -4.13264221 6.39077148 -4.12939453 5.4453125 C-4.12859894 4.63336426 -4.12780334 3.82141602 -4.12698364 2.98486328 C-3.9107193 -0.18264786 -3.22624226 0.13442676 0 0 Z " fill="#4DBFD9" transform="translate(180,175.875)"/>
  <path d="M0 0 C3 0.125 3 0.125 4 1.125 C4.09813987 2.56240353 4.1279828 4.00456327 4.12939453 5.4453125 C4.13254669 6.36296387 4.13569885 7.28061523 4.13894653 8.22607422 C4.1369223 9.22396973 4.13489807 10.22186523 4.1328125 11.25 C4.13376923 12.26723145 4.13472595 13.28446289 4.13571167 14.33251953 C4.13639361 16.48795636 4.13453835 18.64339522 4.13037109 20.79882812 C4.12502305 24.11072371 4.13031563 27.42248367 4.13671875 30.734375 C4.13605797 32.82291697 4.13477681 34.91145885 4.1328125 37 C4.13483673 37.99789551 4.13686096 38.99579102 4.13894653 40.02392578 C4.13579437 40.94157715 4.13264221 41.85922852 4.12939453 42.8046875 C4.12859894 43.61663574 4.12780334 44.42858398 4.12698364 45.26513672 C4 47.125 4 47.125 3 48.125 C0 48.25 0 48.25 -3 48.125 C-4.57300328 46.55199672 -4.12725504 44.98815955 -4.12939453 42.8046875 C-4.13254669 41.88703613 -4.13569885 40.96938477 -4.13894653 40.02392578 C-4.1369223 39.02603027 -4.13489807 38.02813477 -4.1328125 37 C-4.13376923 35.98276855 -4.13472595 34.96553711 -4.13571167 33.91748047 C-4.13639361 31.76204364 -4.13453835 29.60660478 -4.13037109 27.45117188 C-4.12502305 24.13927629 -4.13031563 20.82751633 -4.13671875 17.515625 C-4.13605797 15.42708303 -4.13477681 13.33854115 -4.1328125 11.25 C-4.13483673 10.25210449 -4.13686096 9.25420898 -4.13894653 8.22607422 C-4.13579437 7.30842285 -4.13264221 6.39077148 -4.12939453 5.4453125 C-4.12859894 4.63336426 -4.12780334 3.82141602 -4.12698364 2.98486328 C-3.9107193 -0.18264786 -3.22624226 0.13442676 0 0 Z " fill="#4DBFD9" transform="translate(204,159.875)"/>
  <path d="M0 0 C3 0.125 3 0.125 4 1.125 C4.09813987 2.56240353 4.1279828 4.00456327 4.12939453 5.4453125 C4.13254669 6.36296387 4.13569885 7.28061523 4.13894653 8.22607422 C4.1369223 9.22396973 4.13489807 10.22186523 4.1328125 11.25 C4.13376923 12.26723145 4.13472595 13.28446289 4.13571167 14.33251953 C4.13639361 16.48795636 4.13453835 18.64339522 4.13037109 20.79882812 C4.12502305 24.11072371 4.13031563 27.42248367 4.13671875 30.734375 C4.13605797 32.82291697 4.13477681 34.91145885 4.1328125 37 C4.13483673 37.99789551 4.13686096 38.99579102 4.13894653 40.02392578 C4.13579437 40.94157715 4.13264221 41.85922852 4.12939453 42.8046875 C4.12859894 43.61663574 4.12780334 44.42858398 4.12698364 45.26513672 C4 47.125 4 47.125 3 48.125 C0 48.25 0 48.25 -3 48.125 C-4.57300328 46.55199672 -4.12725504 44.98815955 -4.12939453 42.8046875 C-4.13254669 41.88703613 -4.13569885 40.96938477 -4.13894653 40.02392578 C-4.1369223 39.02603027 -4.13489807 38.02813477 -4.1328125 37 C-4.13376923 35.98276855 -4.13472595 34.96553711 -4.13571167 33.91748047 C-4.13639361 31.76204364 -4.13453835 29.60660478 -4.13037109 27.45117188 C-4.12502305 24.13927629 -4.13031563 20.82751633 -4.13671875 17.515625 C-4.13605797 15.42708303 -4.13477681 13.33854115 -4.1328125 11.25 C-4.13483673 10.25210449 -4.13686096 9.25420898 -4.13894653 8.22607422 C-4.13579437 7.30842285 -4.13264221 6.39077148 -4.12939453 5.4453125 C-4.12859894 4.63336426 -4.12780334 3.82141602 -4.12698364 2.98486328 C-3.9107193 -0.18264786 -3.22624226 0.13442676 0 0 Z " fill="#4DBFD9" transform="translate(156,159.875)"/>
  <path d="M0 0 C2.64 0 5.28 0 8 0 C8 2.64 8 5.28 8 8 C10.64 8 13.28 8 16 8 C16 10.64 16 13.28 16 16 C13.36 16 10.72 16 8 16 C8 18.64 8 21.28 8 24 C5.36 24 2.72 24 0 24 C0 21.36 0 18.72 0 16 C-2.64 16 -5.28 16 -8 16 C-8 13.36 -8 10.72 -8 8 C-5.36 8 -2.72 8 0 8 C0 5.36 0 2.72 0 0 Z " transform="translate(80,192)" style="fill: rgb(155, 177, 195);"/>
  <path d="M 32 192 C 34.64 192 37.28 192 40 192 C 40 194.64 40 197.28 40 200 C 42.64 200 45.28 200 48 200 C 48 202.64 48 205.28 48 208 C 45.36 208 42.72 208 40 208 C 40 210.64 40 213.28 40 216 C 37.36 216 34.72 216 32 216 C 32 213.36 32 210.72 32 208 C 29.36 208 26.72 208 24 208 C 24 205.36 24 202.72 24 200 C 26.64 200 29.28 200 32 200 C 32 197.36 32 194.72 32 192 Z" style="fill: rgb(155, 177, 195);"/>
  <path d="M0 0 C2.64 0 5.28 0 8 0 C8 2.64 8 5.28 8 8 C10.64 8 13.28 8 16 8 C16 10.64 16 13.28 16 16 C13.36 16 10.72 16 8 16 C8 18.64 8 21.28 8 24 C5.36 24 2.72 24 0 24 C0 21.36 0 18.72 0 16 C-2.64 16 -5.28 16 -8 16 C-8 13.36 -8 10.72 -8 8 C-5.36 8 -2.72 8 0 8 C0 5.36 0 2.72 0 0 Z " transform="translate(104,160)" style="fill: rgb(155, 177, 195);"/>
  <path d="M0 0 C2.64 0 5.28 0 8 0 C8 2.64 8 5.28 8 8 C10.64 8 13.28 8 16 8 C16 10.64 16 13.28 16 16 C13.36 16 10.72 16 8 16 C8 18.64 8 21.28 8 24 C5.36 24 2.72 24 0 24 C0 21.36 0 18.72 0 16 C-2.64 16 -5.28 16 -8 16 C-8 13.36 -8 10.72 -8 8 C-5.36 8 -2.72 8 0 8 C0 5.36 0 2.72 0 0 Z " transform="translate(56,160)" style="fill: rgb(155, 177, 195);"/>
</svg>