<?xml version="1.0" encoding="UTF-8"?>
<svg version="1.1" xmlns="http://www.w3.org/2000/svg" width="256" height="256">
<path d="M0 0 C4.37312971 3.83052573 8.41956635 7.73749759 11.08203125 12.94140625 C11.08203125 14.26140625 11.08203125 15.58140625 11.08203125 16.94140625 C9.11069139 18.31675964 7.10521203 19.64351669 5.08203125 20.94140625 C-2.35353368 28.21576652 -2.41347181 35.40992764 -3.91796875 45.94140625 C10.60203125 45.94140625 25.12203125 45.94140625 40.08203125 45.94140625 C42.33203125 53.81640625 42.33203125 53.81640625 41.70703125 57.87890625 C41.59617188 58.65105469 41.4853125 59.42320312 41.37109375 60.21875 C41.22800781 61.07146484 41.22800781 61.07146484 41.08203125 61.94140625 C39.43203125 61.94140625 37.78203125 61.94140625 36.08203125 61.94140625 C36.08726807 63.11759521 36.09250488 64.29378418 36.09790039 65.50561523 C36.11594788 69.85342656 36.12746233 74.20123455 36.13696289 78.54907227 C36.14200369 80.43384355 36.14883623 82.3186109 36.1574707 84.20336914 C36.16954742 86.90642261 36.17526193 89.60942456 36.1796875 92.3125 C36.18484879 93.16041611 36.19001007 94.00833221 36.19532776 94.88194275 C36.1955232 96.90211693 36.14409336 98.92218559 36.08203125 100.94140625 C35.08203125 101.94140625 35.08203125 101.94140625 32.08203125 102.06640625 C29.08203125 101.94140625 29.08203125 101.94140625 28.08203125 100.94140625 C28.08203125 88.07140625 28.08203125 75.20140625 28.08203125 61.94140625 C-19.43796875 61.94140625 -66.95796875 61.94140625 -115.91796875 61.94140625 C-115.91796875 52.21344652 -115.43633323 50.62341559 -109.23046875 44.12890625 C-105.09212596 41.39603837 -101.7861818 41.06040701 -96.91796875 40.94140625 C-96.97597656 40.11898437 -97.03398438 39.2965625 -97.09375 38.44921875 C-97.46294996 29.31415691 -96.29016677 22.78009401 -90.05078125 15.875 C-82.64190729 8.97062135 -76.47483206 7.32584683 -66.4453125 7.5078125 C-61.22912115 8.14900546 -57.31430325 10.17098885 -52.91796875 12.94140625 C-52.25796875 13.27140625 -51.59796875 13.60140625 -50.91796875 13.94140625 C-50.39009766 13.07128906 -50.39009766 13.07128906 -49.8515625 12.18359375 C-43.84519069 2.6800394 -37.20797301 -2.63225104 -26.35546875 -5.80859375 C-16.92592467 -6.77572648 -7.94360673 -5.60412416 0 0 Z " fill="#D8D8D9" transform="translate(123.91796875,114.05859375)"/>
<path d="M0 0 C5.82724493 3.96624854 10.38966136 8.23777435 13.95703125 14.33203125 C14.63378906 14.00976562 15.31054688 13.6875 16.0078125 13.35546875 C24.14325204 10.5323096 34.18577862 11.47167255 41.8828125 15.1484375 C49.42699508 19.45331005 54.22112624 26.12431623 56.95703125 34.33203125 C57.02558075 36.22673941 57.04183497 38.12371465 57.01953125 40.01953125 C57.01050781 41.01339844 57.00148438 42.00726563 56.9921875 43.03125 C56.98058594 43.79050781 56.96898437 44.54976562 56.95703125 45.33203125 C57.98828125 45.29078125 59.01953125 45.24953125 60.08203125 45.20703125 C63.82532752 45.32778274 66.49437672 45.98075143 69.95703125 47.33203125 C67.79056246 49.55886605 65.55619846 51.62225435 63.14453125 53.58203125 C62.17580078 54.39414063 62.17580078 54.39414063 61.1875 55.22265625 C58.09467114 56.76094591 56.29116964 56.06562412 52.95703125 55.33203125 C43.90545145 54.58130781 36.45323019 54.80272487 28.95703125 60.33203125 C26.11261941 63.04265685 23.71830304 65.80948767 21.95703125 69.33203125 C18.96067298 68.22226893 17.79810343 67.13223628 15.76953125 64.58203125 C9.1193526 56.26422371 -0.5963791 52.72605927 -10.85546875 51.45703125 C-21.40368365 50.82708703 -30.64779757 54.000556 -39.04296875 60.33203125 C-41.85588599 62.87465189 -44.49359264 65.5262933 -47.04296875 68.33203125 C-47.63722656 68.12707031 -48.23148438 67.92210938 -48.84375 67.7109375 C-55.2506944 65.62843147 -61.32534629 64.70239447 -68.04296875 64.33203125 C-68.69031732 54.87354939 -67.30871361 47.21322345 -61.41796875 39.58203125 C-57.67627822 35.54292429 -52.95789496 32.74529538 -48.04296875 30.33203125 C-47.38296875 30.33203125 -46.72296875 30.33203125 -46.04296875 30.33203125 C-46.10484375 29.38328125 -46.16671875 28.43453125 -46.23046875 27.45703125 C-46.17839319 18.8645642 -42.93238092 11.49937074 -37.04296875 5.33203125 C-27.29008689 -3.42804228 -11.99053244 -6.48818486 0 0 Z " fill="#D9D9D9" transform="translate(118.04296875,50.66796875)"/>
<path d="M0 0 C5.16818759 3.12314132 9.07049266 7.84033475 12 13.0625 C12.73563779 16.25026376 12.690265 19.24199254 12.5625 22.5 C14.0475 22.37625 14.0475 22.37625 15.5625 22.25 C21.20507544 22.29550464 25.48111323 24.5451289 29.5546875 28.37109375 C35.19159094 34.55765374 36.5625 37.87702219 36.5625 46.5 C-3.3675 46.5 -43.2975 46.5 -84.4375 46.5 C-81.69240196 35.51960784 -81.69240196 35.51960784 -75.5 31.125 C-72.76390504 30.29588032 -70.27733385 30.37091664 -67.4375 30.5 C-67.64375 29.84 -67.85 29.18 -68.0625 28.5 C-68.72455809 23.20353531 -67.17757483 18.95168524 -64.8125 14.3125 C-60.79759945 9.55801251 -57.38514077 6.89508006 -51.0859375 6.05078125 C-43.74955712 5.82299214 -38.63310716 6.53481142 -32.4375 10.5 C-32.17582031 9.90445313 -31.91414063 9.30890625 -31.64453125 8.6953125 C-30.36942773 6.37619218 -29.13436616 5.07694651 -27.125 3.375 C-26.26455078 2.62863281 -26.26455078 2.62863281 -25.38671875 1.8671875 C-18.44092136 -3.00461428 -7.71382895 -3.41828499 0 0 Z " fill="#D9D9D9" transform="translate(211.4375,105.5)"/>
<path d="M0 0 C3 0.125 3 0.125 4 1.125 C4.09813987 2.56240353 4.1279828 4.00456327 4.12939453 5.4453125 C4.13254669 6.36296387 4.13569885 7.28061523 4.13894653 8.22607422 C4.1369223 9.22396973 4.13489807 10.22186523 4.1328125 11.25 C4.13376923 12.26723145 4.13472595 13.28446289 4.13571167 14.33251953 C4.13639361 16.48795636 4.13453835 18.64339522 4.13037109 20.79882812 C4.12502305 24.11072371 4.13031563 27.42248367 4.13671875 30.734375 C4.13605797 32.82291697 4.13477681 34.91145885 4.1328125 37 C4.13483673 37.99789551 4.13686096 38.99579102 4.13894653 40.02392578 C4.13579437 40.94157715 4.13264221 41.85922852 4.12939453 42.8046875 C4.12859894 43.61663574 4.12780334 44.42858398 4.12698364 45.26513672 C4 47.125 4 47.125 3 48.125 C0 48.25 0 48.25 -3 48.125 C-4.57300328 46.55199672 -4.12725504 44.98815955 -4.12939453 42.8046875 C-4.13254669 41.88703613 -4.13569885 40.96938477 -4.13894653 40.02392578 C-4.1369223 39.02603027 -4.13489807 38.02813477 -4.1328125 37 C-4.13376923 35.98276855 -4.13472595 34.96553711 -4.13571167 33.91748047 C-4.13639361 31.76204364 -4.13453835 29.60660478 -4.13037109 27.45117188 C-4.12502305 24.13927629 -4.13031563 20.82751633 -4.13671875 17.515625 C-4.13605797 15.42708303 -4.13477681 13.33854115 -4.1328125 11.25 C-4.13483673 10.25210449 -4.13686096 9.25420898 -4.13894653 8.22607422 C-4.13579437 7.30842285 -4.13264221 6.39077148 -4.12939453 5.4453125 C-4.12859894 4.63336426 -4.12780334 3.82141602 -4.12698364 2.98486328 C-3.9107193 -0.18264786 -3.22624226 0.13442676 0 0 Z " fill="#4DBFD9" transform="translate(228,183.875)"/>
<path d="M0 0 C3 0.125 3 0.125 4 1.125 C4.09813987 2.56240353 4.1279828 4.00456327 4.12939453 5.4453125 C4.13254669 6.36296387 4.13569885 7.28061523 4.13894653 8.22607422 C4.1369223 9.22396973 4.13489807 10.22186523 4.1328125 11.25 C4.13376923 12.26723145 4.13472595 13.28446289 4.13571167 14.33251953 C4.13639361 16.48795636 4.13453835 18.64339522 4.13037109 20.79882812 C4.12502305 24.11072371 4.13031563 27.42248367 4.13671875 30.734375 C4.13605797 32.82291697 4.13477681 34.91145885 4.1328125 37 C4.13483673 37.99789551 4.13686096 38.99579102 4.13894653 40.02392578 C4.13579437 40.94157715 4.13264221 41.85922852 4.12939453 42.8046875 C4.12859894 43.61663574 4.12780334 44.42858398 4.12698364 45.26513672 C4 47.125 4 47.125 3 48.125 C0 48.25 0 48.25 -3 48.125 C-4.57300328 46.55199672 -4.12725504 44.98815955 -4.12939453 42.8046875 C-4.13254669 41.88703613 -4.13569885 40.96938477 -4.13894653 40.02392578 C-4.1369223 39.02603027 -4.13489807 38.02813477 -4.1328125 37 C-4.13376923 35.98276855 -4.13472595 34.96553711 -4.13571167 33.91748047 C-4.13639361 31.76204364 -4.13453835 29.60660478 -4.13037109 27.45117188 C-4.12502305 24.13927629 -4.13031563 20.82751633 -4.13671875 17.515625 C-4.13605797 15.42708303 -4.13477681 13.33854115 -4.1328125 11.25 C-4.13483673 10.25210449 -4.13686096 9.25420898 -4.13894653 8.22607422 C-4.13579437 7.30842285 -4.13264221 6.39077148 -4.12939453 5.4453125 C-4.12859894 4.63336426 -4.12780334 3.82141602 -4.12698364 2.98486328 C-3.9107193 -0.18264786 -3.22624226 0.13442676 0 0 Z " fill="#4DBFD9" transform="translate(180,183.875)"/>
<path d="M0 0 C3 0.125 3 0.125 4 1.125 C4.09813987 2.56240353 4.1279828 4.00456327 4.12939453 5.4453125 C4.13254669 6.36296387 4.13569885 7.28061523 4.13894653 8.22607422 C4.1369223 9.22396973 4.13489807 10.22186523 4.1328125 11.25 C4.13376923 12.26723145 4.13472595 13.28446289 4.13571167 14.33251953 C4.13639361 16.48795636 4.13453835 18.64339522 4.13037109 20.79882812 C4.12502305 24.11072371 4.13031563 27.42248367 4.13671875 30.734375 C4.13605797 32.82291697 4.13477681 34.91145885 4.1328125 37 C4.13483673 37.99789551 4.13686096 38.99579102 4.13894653 40.02392578 C4.13579437 40.94157715 4.13264221 41.85922852 4.12939453 42.8046875 C4.12859894 43.61663574 4.12780334 44.42858398 4.12698364 45.26513672 C4 47.125 4 47.125 3 48.125 C0 48.25 0 48.25 -3 48.125 C-4.57300328 46.55199672 -4.12725504 44.98815955 -4.12939453 42.8046875 C-4.13254669 41.88703613 -4.13569885 40.96938477 -4.13894653 40.02392578 C-4.1369223 39.02603027 -4.13489807 38.02813477 -4.1328125 37 C-4.13376923 35.98276855 -4.13472595 34.96553711 -4.13571167 33.91748047 C-4.13639361 31.76204364 -4.13453835 29.60660478 -4.13037109 27.45117188 C-4.12502305 24.13927629 -4.13031563 20.82751633 -4.13671875 17.515625 C-4.13605797 15.42708303 -4.13477681 13.33854115 -4.1328125 11.25 C-4.13483673 10.25210449 -4.13686096 9.25420898 -4.13894653 8.22607422 C-4.13579437 7.30842285 -4.13264221 6.39077148 -4.12939453 5.4453125 C-4.12859894 4.63336426 -4.12780334 3.82141602 -4.12698364 2.98486328 C-3.9107193 -0.18264786 -3.22624226 0.13442676 0 0 Z " fill="#4DBFD9" transform="translate(204,167.875)"/>
<path d="M0 0 C4.55555556 0.55555556 4.55555556 0.55555556 6 2 C6.09804851 3.4067522 6.12798186 4.81835136 6.12939453 6.22851562 C6.13254669 7.12614624 6.13569885 8.02377686 6.13894653 8.9486084 C6.1369223 9.92463013 6.13489807 10.90065186 6.1328125 11.90625 C6.13376923 12.9012854 6.13472595 13.8963208 6.13571167 14.92150879 C6.1363936 17.02986718 6.13453844 19.13822765 6.13037109 21.24658203 C6.12502303 24.48605027 6.13031567 27.72537985 6.13671875 30.96484375 C6.13605797 33.00781281 6.13477681 35.05078178 6.1328125 37.09375 C6.13483673 38.06977173 6.13686096 39.04579346 6.13894653 40.0513916 C6.13579437 40.94902222 6.13264221 41.84665283 6.12939453 42.77148438 C6.12820114 43.9627594 6.12820114 43.9627594 6.12698364 45.17810059 C6 47 6 47 5 48 C2 48.125 2 48.125 -1 48 C-2.55569176 46.44430824 -2.13484055 44.95075083 -2.14526367 42.78735352 C-2.15164352 41.89295059 -2.15802338 40.99854767 -2.16459656 40.07704163 C-2.16570938 39.10415695 -2.1668222 38.13127228 -2.16796875 37.12890625 C-2.17129715 36.13624252 -2.17462555 35.1435788 -2.17805481 34.12083435 C-2.1831284 32.0166775 -2.185463 29.91251257 -2.18530273 27.80834961 C-2.1874883 24.57978117 -2.20563699 21.35155473 -2.22460938 18.12304688 C-2.22754332 16.08333451 -2.22952811 14.04362051 -2.23046875 12.00390625 C-2.23765427 11.03304581 -2.24483978 10.06218536 -2.25224304 9.06190491 C-2.24916641 8.16434982 -2.24608978 7.26679474 -2.24291992 6.34204102 C-2.24434494 5.55007828 -2.24576996 4.75811554 -2.24723816 3.94215393 C-2 2 -2 2 0 0 Z " fill="#4DBFD9" transform="translate(154,168)"/>
</svg>
